<svg width="123" height="19" viewBox="0 0 123 19" fill="none" xmlns="http://www.w3.org/2000/svg">
<path d="M12.0423 2.57412C15.956 2.57412 19.6382 5.16525 19.6382 10.6714C19.6382 16.1775 15.956 18.7686 12.0423 18.7686L-1.01128e-08 18.7686L-9.40358e-09 2.57412L12.0423 2.57412ZM10.1896 13.6789C11.4865 13.6789 13.617 13.6789 13.617 10.6714C13.617 7.66383 11.4865 7.66383 10.1896 7.66383L6.02114 7.66383L6.02114 13.6789L10.1896 13.6789Z" fill="#CECECE"/>
<path d="M37.9315 7.20113L26.8156 7.20113L26.8156 8.70491L37.9315 8.7049L37.9315 12.6379L26.8156 12.6379L26.8156 14.1416L37.9315 14.1416L37.9315 18.7686L20.7944 18.7686L20.7944 2.57412L37.9315 2.57412L37.9315 7.20113Z" fill="#CECECE"/>
<path d="M55.2893 2.57412L61.9126 2.57412L55.1967 18.7686L46.2576 18.7686L39.5417 2.57412L46.165 2.57412L50.7272 14.6043L55.2893 2.57412Z" fill="#CECECE"/>
<path d="M69.5678 2.57412L69.5678 18.7686L63.5467 18.7686L63.5467 2.57412L69.5678 2.57412Z" fill="#CECECE"/>
<path d="M76.9739 13.6789L87.6267 13.6789L87.6267 18.7686L70.9528 18.7686L70.9528 2.57412L76.9739 2.57412L76.9739 13.6789Z" fill="#CECECE"/>
<path d="M88.553 13.0543L94.5741 13.0543C94.5741 13.8409 95.3152 14.373 99.1363 14.373C102.703 14.373 103.235 14.1416 103.235 13.5401C103.235 12.8461 102.703 12.7535 98.9047 12.6379C91.5867 12.4065 88.7846 11.2035 88.7846 7.43248C88.7846 3.86968 92.2815 2.34277 98.6732 2.34277C104.995 2.34277 108.562 3.86968 108.562 8.01085L102.541 8.01085C102.541 7.15486 101.151 6.96978 98.21 6.96978C95.3847 6.96978 94.8057 7.10859 94.8057 7.73323C94.8057 8.35788 95.3847 8.33474 98.9047 8.47355C105.296 8.72804 109.256 9.16761 109.256 13.4013C109.256 17.8664 105.551 19 98.9047 19C92.2583 19 88.553 17.8664 88.553 13.0543Z" fill="#CECECE"/>
<path d="M114.997 8.84221L114.997 3.34533L116.886 3.34533C117.766 3.34533 118.452 3.57205 118.943 4.0255C119.434 4.46969 119.679 5.1221 119.679 5.98272C119.679 6.92663 119.415 7.63919 118.887 8.1204C118.359 8.60161 117.65 8.84221 116.761 8.84221L114.997 8.84221ZM116.344 7.74561L116.761 7.74561C117.28 7.74561 117.66 7.6068 117.901 7.32918C118.141 7.04231 118.262 6.60737 118.262 6.02437C118.262 4.9509 117.799 4.41417 116.872 4.41417L116.344 4.41417L116.344 7.74561ZM116.9 12.1875C116.057 12.1875 115.265 12.0302 114.524 11.7156C113.792 11.4009 113.144 10.966 112.579 10.4108C112.023 9.84627 111.588 9.19849 111.273 8.46742C110.958 7.7271 110.8 6.93589 110.8 6.09377C110.8 5.25165 110.958 4.46506 111.273 3.734C111.588 2.99368 112.023 2.34589 112.579 1.79065C113.144 1.22616 113.792 0.786591 114.524 0.471955C115.265 0.157319 116.057 6.49026e-07 116.9 6.1218e-07C117.752 5.74928e-07 118.544 0.157321 119.276 0.471957C120.008 0.786593 120.652 1.22616 121.208 1.79065C121.773 2.34589 122.213 2.98905 122.528 3.72012C122.843 4.45118 123 5.2424 123 6.09377C123 6.93589 122.843 7.7271 122.528 8.46742C122.213 9.19849 121.773 9.84627 121.208 10.4108C120.652 10.966 120.003 11.4009 119.262 11.7156C118.53 12.0302 117.743 12.1875 116.9 12.1875ZM116.9 10.8133C117.558 10.8133 118.169 10.693 118.734 10.4524C119.309 10.2118 119.813 9.87403 120.249 9.4391C120.684 9.00416 121.022 8.50444 121.263 7.93995C121.504 7.3662 121.624 6.75081 121.624 6.09377C121.624 5.43673 121.504 4.82597 121.263 4.26147C121.022 3.68773 120.684 3.18338 120.249 2.74844C119.813 2.31351 119.309 1.97573 118.734 1.73513C118.169 1.49452 117.558 1.37422 116.9 1.37422C116.242 1.37422 115.626 1.49452 115.052 1.73513C114.487 1.97573 113.987 2.31351 113.551 2.74844C113.116 3.18338 112.778 3.68773 112.537 4.26147C112.296 4.82597 112.176 5.43673 112.176 6.09377C112.176 6.7508 112.296 7.3662 112.537 7.93995C112.778 8.50444 113.116 9.00416 113.551 9.4391C113.987 9.87403 114.487 10.2118 115.052 10.4524C115.626 10.693 116.242 10.8133 116.9 10.8133Z" fill="#CECECE"/>
</svg>
