<svg width="1860" height="285" viewBox="0 0 1860 285" fill="none" xmlns="http://www.w3.org/2000/svg">
<path d="M204.915 3.94472C271.543 3.94472 333.972 47.7987 333.972 142.007C333.972 236.215 271.543 281.055 204.915 281.055L-1.72425e-07 281.055L-1.22853e-05 3.94473L204.915 3.94472ZM173.39 194.273C195.468 194.273 231.515 193.465 231.515 142.007C231.515 90.5487 195.468 90.7267 173.39 90.7267L102.458 90.7267L102.458 194.273L173.39 194.273Z" fill="#E3E8EC"/>
<path d="M645.286 82.8374L456.133 82.8374L456.133 108.478L645.286 108.478L645.286 176.523L456.133 176.523L456.133 202.163L645.286 202.163L645.286 281.055L353.676 281.055L353.676 3.94472L645.286 3.9447L645.286 82.8374Z" fill="#E3E8EC"/>
<path d="M940.837 3.94469L1054.13 3.94469L939.852 281.055L787.15 281.055L672.871 3.9447L786.165 3.9447L863.994 210.052L940.837 3.94469Z" fill="#E3E8EC"/>
<path d="M1184.17 3.94468L1184.17 281.055L1081.72 281.055L1081.72 3.94469L1184.17 3.94468Z" fill="#E3E8EC"/>
<path d="M1310.28 194.273L1491.55 194.273L1491.55 281.055L1207.82 281.055L1207.82 3.94468L1310.28 3.94468L1310.28 194.273Z" fill="#E3E8EC"/>
<path d="M1507.31 183.426L1609.77 183.426C1609.77 196.884 1622.54 206.107 1687.6 206.107C1748.31 206.107 1757.54 201.606 1757.54 191.315C1757.54 179.44 1748.31 178.502 1683.65 176.522C1559.07 172.564 1511.25 151.303 1511.25 86.782C1511.25 25.8237 1570.9 2.28865e-05 1679.71 1.81301e-05C1787.34 1.34254e-05 1848.18 25.7895 1848.18 96.6436L1745.72 96.6436C1745.72 81.9978 1721.9 78.8927 1671.83 78.8927C1623.73 78.8927 1613.71 82.0115 1613.71 92.6989C1613.71 103.386 1623.73 102.158 1683.65 104.533C1792.47 108.887 1860 116.905 1860 189.343C1860 265.738 1796.8 285 1683.65 285C1570.51 285 1507.31 265.759 1507.31 183.426Z" fill="#E3E8EC"/>
</svg>
