<svg width="15" height="15" viewBox="0 0 15 15" fill="none" xmlns="http://www.w3.org/2000/svg">
<path d="M7.61659 0.0111084H7.39453V5.49594H7.61659V0.0111084Z" fill="white"/>
<path d="M7.61659 9.5152H7.39453V15H7.61659V9.5152Z" fill="white"/>
<path d="M5.49653 7.39453H0.0117188V7.61659H5.49653V7.39453Z" fill="white"/>
<path d="M15.0004 7.39453H9.51562V7.61659H15.0004V7.39453Z" fill="white"/>
<path d="M7.50525 12.6462C4.66292 12.6462 2.35352 10.3368 2.35352 7.49445C2.35352 4.65211 4.66292 2.34271 7.50525 2.34271C10.3476 2.34271 12.657 4.65211 12.657 7.49445C12.657 10.3368 10.3365 12.6462 7.50525 12.6462ZM7.50525 2.57587C4.78505 2.57587 2.57557 4.78535 2.57557 7.50555C2.57557 10.2258 4.78505 12.4352 7.50525 12.4352C10.2255 12.4352 12.4349 10.2258 12.4349 7.50555C12.4349 4.78535 10.2144 2.57587 7.50525 2.57587Z" fill="white"/>
<path d="M7.61523 7.3945H9.51382C9.45831 6.37304 8.6367 5.55143 7.61523 5.49591V7.3945Z" fill="white"/>
<path d="M7.3947 7.3945V5.49591C6.37323 5.55143 5.55161 6.37304 5.49609 7.3945H7.3947Z" fill="white"/>
<path d="M7.3947 7.61658H5.49609C5.55161 8.63804 6.37323 9.45966 7.3947 9.51517V7.61658Z" fill="white"/>
<path d="M7.61523 7.61658V9.51517C8.6367 9.45966 9.45831 8.63804 9.51382 7.61658H7.61523Z" fill="white"/>
</svg>
